HIERARCHY
ROOT Hips
{
	OFFSET 0.00000 0.00000 0.00000
	CHANNELS 6 Xposition Yposition Zposition Yrotation Zrotation Xrotation 
	JOINT Lumbar
	{
		OFFSET 0 0 0
		CHANNELS 3 Zrotation Xrotation Yrotation
		JOINT Neck
		{
			OFFSET 0.00 0.2701 0.00
			CHANNELS 3 Zrotation Xrotation Yrotation
			End Site
			{
				OFFSET 0.00 0.1379 0.00
			}
		}
		JOINT RightShoulder
		{
			OFFSET 0.0119 0.2289 0.1181
			CHANNELS 3 Zrotation Xrotation Yrotation
			JOINT RightElbow
			{
				OFFSET 0.00 -0.1475 0.00
				CHANNELS 2 Zrotation Yrotation
				JOINT RightWrist
				{
					OFFSET 0.00 -0.1605 0.00
					CHANNELS 2 Zrotation Xrotation
					End Site
					{
						OFFSET 0.0040 -0.1068 0.0006
					}
				}
			}
		}
		JOINT LeftShoulder
		{
			OFFSET 0.0119 0.2289 -0.1181
			CHANNELS 3 Zrotation Xrotation Yrotation
			JOINT LeftElbow
			{
				OFFSET 0.00 -0.1475 0.00
				CHANNELS 2 Zrotation Yrotation
				JOINT LeftWrist
				{
					OFFSET 0.00 -0.1605 0.00
					CHANNELS 2 Zrotation Xrotation
					End Site
					{
						OFFSET 0.0040 -0.1068 -0.0006
					}
				}
			}
		}
	}
	JOINT RightHip
	{
		OFFSET 0.0316 -0.0424 0.0458
		CHANNELS 3 Zrotation Xrotation Yrotation
		JOINT RightKnee
		{
			OFFSET 0.00 -0.2438 0.00
			CHANNELS 1 Zrotation
			JOINT RightAnkle
			{
				OFFSET 0.00 -0.2449 0.00
				CHANNELS 3 Zrotation Xrotation Yrotation
				End Site
				{
					OFFSET 0.1237 -0.0542 0.0051
				}
			}
		}
	}
	JOINT LeftHip
	{
		OFFSET 0.0316 -0.0424 -0.0458
		CHANNELS 3 Zrotation Xrotation Yrotation
		JOINT LeftKnee
		{
			OFFSET 0.00 -0.2438 0.00
			CHANNELS 1 Zrotation
			JOINT LeftAnkle
			{
				OFFSET 0.00 -0.2449 0.00
				CHANNELS 3 Zrotation Xrotation Yrotation
				End Site
				{
					OFFSET 0.1237 -0.0542 -0.0051
				}
			}
		}
	}
}
MOTION
Frames: 22
Frame Time: 0.02
0.00124 -0.00047 -0.00066 19.7262 -18.6175 -1.07228 46.72219 -0.88867 -7.71101 -15.81494 2.81685 -1.18279 -26.68248 -7.74118 -5.22742 30.75891 55.20912 -3.48217 -4.90284 -28.94847 6.11467 3.82949 36.58467 -105.95268 16.09996 -2.12267 29.33956 -3.68274 -4.89024 -20.35356 -7.11509 -3.95905 -4.19188 33.02546 3.66818 0.19549 -24.48277 -6.64382 3.02155 3.7163
0.00103 -0.00057 -0.00058 19.67952 -18.58497 -1.05611 46.70154 -0.88345 -7.70382 -15.81711 2.82897 -1.18338 -26.3872 -7.10952 -7.75468 30.60622 63.04505 -1.35939 -3.55408 -28.90937 6.12219 3.82578 36.55021 -105.9752 16.12369 -2.1232 29.33497 -3.76791 -5.29458 -20.37969 -7.07859 -3.92586 -4.17212 32.99467 3.79605 0.82911 -24.49268 -6.62626 2.96753 3.68693
0.00081 -0.00068 -0.00049 19.63305 -18.55266 -1.03998 46.68083 -0.87822 -7.69659 -15.81929 2.84118 -1.18398 -26.09229 -6.47982 -10.27491 30.45312 70.85702 0.75675 -2.20944 -28.87023 6.12996 3.82169 36.51589 -105.99779 16.14756 -2.12372 29.33063 -3.85288 -5.69805 -20.4058 -7.04216 -3.89274 -4.15241 32.96423 3.92355 1.46093 -24.50261 -6.60874 2.91365 3.65765
0.00059 -0.00078 -0.00041 19.58653 -18.5202 -1.02386 46.66026 -0.87302 -7.68942 -15.8215 2.85328 -1.18456 -25.7979 -5.85007 -12.79457 30.30076 78.66899 2.87301 -0.86481 -28.83125 6.13749 3.81797 36.48151 -106.02027 16.17127 -2.12425 29.32601 -3.9378 -6.10126 -20.43185 -7.00576 -3.85965 -4.1327 32.93351 4.05103 2.09264 -24.51249 -6.59122 2.85979 3.62837
0.00038 -0.00088 -0.00033 19.53978 -18.4876 -1.00769 46.63969 -0.86781 -7.68226 -15.8236 2.86527 -1.18515 -25.50318 -5.21845 -15.32082 30.14913 86.50444 4.99583 0.48385 -28.79231 6.14473 3.81469 36.44707 -106.0426 16.19474 -2.1248 29.32123 -4.02288 -6.50507 -20.4579 -6.9693 -3.8265 -4.11296 32.90252 4.17884 2.72606 -24.52234 -6.57366 2.8058 3.59902
0.00015 -0.00099 -0.00024 19.4939 -18.45595 -0.99165 46.61864 -0.86252 -7.67488 -15.82586 2.87796 -1.18576 -25.20776 -4.59288 -17.82814 29.99298 94.2664 7.09778 1.81993 -28.75268 6.15362 3.80882 36.41302 -106.06572 16.21944 -2.12527 29.31793 -4.10763 -6.90771 -20.48413 -6.93296 -3.79347 -4.09331 32.87336 4.30567 3.35447 -24.53247 -6.55625 2.75217 3.56989
-6e-05 -0.00109 -0.00017 19.44634 -18.42213 -0.97538 46.59886 -0.85748 -7.66805 -15.8281 2.88917 -1.18631 -24.91456 -3.9556 -20.37109 29.84608 102.16827 9.23956 3.17995 -28.71468 6.15906 3.80844 36.37801 -106.08728 16.24168 -2.1259 29.31117 -4.19297 -7.3126 -20.50994 -6.89639 -3.76022 -4.07349 32.84005 4.43439 3.99232 -24.54197 -6.53852 2.69786 3.54034
-0.00028 -0.00119 -8e-05 19.4003 -18.39083 -0.9593 46.57737 -0.85204 -7.66054 -15.8298 2.90185 -1.18695 -24.61845 -3.32951 -22.88061 29.69065 109.94006 11.34434 4.51771 -28.6748 6.16791 3.8025 36.34429 -106.11021 16.26613 -2.12637 29.30849 -4.27773 -7.71481 -20.5362 -6.86009 -3.72721 -4.05384 32.81147 4.56128 4.62137 -24.55214 -6.52113 2.64419 3.51118
-0.00051 -0.0013 1e-05 19.35619 -18.36056 -0.94354 46.55589 -0.8468 -7.65284 -15.83304 2.91592 -1.18755 -24.32195 -2.71532 -25.35275 29.52457 117.56034 13.40581 5.82955 -28.63409 6.18006 3.79167 36.31053 -106.13513 16.29355 -2.12667 29.30727 -4.36198 -8.11638 -20.56281 -6.82388 -3.6943 -4.03431 32.78514 4.68631 5.24033 -24.5628 -6.50398 2.59122 3.48247
-0.00067 -0.00139 7e-05 19.30119 -18.31819 -0.92621 46.54066 -0.84247 -7.64816 -15.83406 2.92078 -1.18793 -24.03723 -2.02729 -28.05052 29.41911 126.07512 15.72227 7.29447 -28.60256 6.17063 3.8147 36.27212 -106.14952 16.30469 -2.12804 29.28707 -4.44974 -8.52957 -20.58678 -6.78642 -3.66026 -4.01383 32.73525 4.82318 5.91934 -24.56965 -6.48493 2.53398 3.45108
-0.001 -0.00152 0.00019 19.26904 -18.30529 -0.91199 46.50824 -0.83491 -7.63588 -15.83552 2.94583 -1.18907 -23.72162 -1.49851 -30.26525 29.18626 132.68755 17.49691 8.43376 -28.54888 6.20836 3.76269 36.24663 -106.18551 16.34965 -2.12709 29.31365 -4.52972 -8.91308 -20.6167 -6.75208 -3.62896 -3.99555 32.74181 4.93433 6.47035 -24.58518 -6.47021 2.48592 3.42541
-0.00168 -0.00175 0.00044 19.30163 -18.34256 -0.90805 46.45981 -0.82904 -7.61293 -15.87218 3.02073 -1.18974 -23.36821 -1.38301 -31.19745 28.59616 134.1483 17.80025 8.69188 -28.45536 6.36347 3.53213 36.23077 -106.28574 16.49201 -2.12011 29.41641 -4.59167 -9.2585 -20.6612 -6.72221 -3.60224 -3.98173 32.85167 4.97991 6.67678 -24.6206 -6.46509 2.46197 3.41494
-0.00257 -0.00202 0.00076 19.35702 -18.41561 -0.90687 46.38756 -0.81782 -7.5806 -15.90239 3.1169 -1.19163 -22.97401 -1.43223 -31.63515 27.87976 133.68205 17.55537 8.62012 -28.33486 6.56814 3.22129 36.23219 -106.4062 16.66697 -2.11073 29.57698 -4.64549 -9.56705 -20.71267 -6.69617 -3.57875 -3.97037 33.02915 4.99852 6.75288 -24.6663 -6.46482 2.44746 3.4103
-0.00346 -0.00228 0.00106 19.40037 -18.49169 -0.90331 46.30684 -0.80238 -7.54571 -15.91415 3.20704 -1.19465 -22.56917 -1.42101 -32.27304 27.22587 134.05818 17.55292 8.69197 -28.21413 6.75807 2.92908 36.24314 -106.51484 16.82466 -2.10225 29.74373 -4.70045 -9.86294 -20.76125 -6.6711 -3.5558 -3.95896 33.20765 5.02643 6.885 -24.70877 -6.46375 2.4293 3.40329
-0.00395 -0.0025 0.00128 19.44994 -18.48436 -0.90464 46.31071 -0.81566 -7.53899 -16.01864 3.28205 -1.19064 -22.2918 -1.34749 -33.01975 26.54925 134.58821 17.58304 8.79222 -28.14959 6.91541 2.71139 36.18267 -106.63681 16.99488 -2.09461 29.76887 -4.7649 -10.27897 -20.80593 -6.63478 -3.52469 -3.94323 33.24662 5.06757 7.03274 -24.74167 -6.45647 2.40839 3.39505
-0.00533 -0.00282 0.0017 19.49307 -18.6618 -0.8963 46.12877 -0.76704 -7.47213 -15.92534 3.39339 -1.20145 -21.73375 -1.44499 -33.41476 25.89119 134.31966 17.40868 8.75204 -27.95721 7.15217 2.32031 36.27261 -106.73306 17.14409 -2.08461 30.10857 -4.80925 -10.441 -20.86384 -6.62257 -3.51096 -3.93689 33.59928 5.07378 7.11415 -24.80134 -6.46363 2.39554 3.39083
-0.00899 -0.00331 0.00264 19.50272 -19.31815 -0.86212 45.47164 -0.55546 -7.23412 -15.3143 3.60222 -1.25383 -20.45607 -1.9544 -33.03507 25.30345 132.5094 16.86179 8.43415 -27.45532 7.59762 1.46226 36.79441 -106.77301 17.2469 -2.06883 31.25317 -4.78633 -9.86741 -20.92956 -6.67821 -3.54759 -3.95751 34.74172 4.99969 7.07177 -24.8966 -6.50623 2.4016 3.39546
-0.01357 -0.0039 0.00379 19.50669 -20.16282 -0.81803 44.6212 -0.28024 -6.93673 -14.49967 3.84686 -1.32089 -18.88769 -2.63348 -32.30949 24.73935 129.92949 16.11671 7.98221 -26.81836 8.12091 0.43355 37.46289 -106.78017 17.32189 -2.05063 32.72196 -4.74598 -9.04708 -21.0151 -6.7576 -3.60098 -3.9872 36.20877 4.89035 6.96356 -25.02637 -6.56371 2.41546 3.40398
-0.01782 -0.00448 0.00486 19.52024 -20.9368 -0.77724 43.83967 -0.03021 -6.67205 -13.76037 4.07298 -1.38065 -17.42406 -3.24854 -31.68669 24.17433 127.57329 15.42537 7.5709 -26.21961 8.60769 -0.51135 38.05088 -106.79266 17.39914 -2.03358 34.07435 -4.7227 -8.36867 -21.10715 -6.82468 -3.64462 -4.01168 37.56639 4.78997 6.86558 -25.16221 -6.61659 2.42665 3.41136
-0.02172 -0.00491 0.00585 19.50618 -21.65161 -0.74087 43.142 0.20302 -6.38515 -13.09248 4.30751 -1.44316 -16.07927 -3.81597 -31.25612 23.57019 125.67083 14.87104 7.22854 -25.71959 9.10138 -1.48372 38.69876 -106.85664 17.52907 -2.01664 35.29666 -4.66071 -7.56512 -21.12698 -6.89828 -3.69742 -4.04087 38.76527 4.71542 6.83993 -25.20141 -6.66085 2.43519 3.4167
-0.02656 -0.0057 0.00707 19.54654 -22.53087 -0.69388 42.21816 0.48783 -6.12772 -12.22876 4.53504 -1.50333 -14.41249 -4.51841 -30.37483 23.04633 122.67966 13.98792 6.72152 -24.97993 9.59803 -2.44053 39.25536 -106.79234 17.53258 -1.99842 36.86807 -4.67504 -6.96172 -21.31058 -6.96392 -3.73505 -4.06235 40.37132 4.58286 6.65754 -25.45644 -6.72611 2.45008 3.42666
-0.03382 -0.00736 0.00885 19.75069 -23.84511 -0.61133 40.76901 0.88573 -5.99017 -10.86434 4.7149 -1.55426 -11.97997 -5.57172 -28.11691 22.81351 116.76447 12.28098 5.7358 -23.63082 10.08749 -3.29294 39.53291 -106.49626 17.27878 -1.9818 39.30988 -4.90712 -6.99242 -21.86903 -7.00106 -3.72682 -4.06032 43.02145 4.2654 5.98946 -26.24538 -6.84896 2.48853 3.45247
